{
    "asset" : {
        "generator" : "Khronos glTF Blender I/O v3.2.43",
        "version" : "2.0"
    },
    "scene" : 0,
    "scenes" : [
        {
            "name" : "Scene",
            "nodes" : [
                0,
                1,
                2,
                3,
                4,
                5,
                6,
                7
            ]
        }
    ],
    "nodes" : [
        {
            "mesh" : 0,
            "name" : "\u5e73\u9762.003",
            "rotation" : [
                0.499038964509964,
                -0.5009592175483704,
                -0.5009592175483704,
                0.499038964509964
            ],
            "scale" : [
                0.038199689239263535,
                0.038199689239263535,
                0.038199689239263535
            ],
            "translation" : [
                -0.0508478581905365,
                0.00036806799471378326,
                -0.02935865707695484
            ]
        },
        {
            "mesh" : 1,
            "name" : "\u5e73\u9762.005",
            "rotation" : [
                0.499038964509964,
                -0.5009592175483704,
                -0.5009592175483704,
                0.499038964509964
            ],
            "scale" : [
                0.038199689239263535,
                0.038199689239263535,
                0.038199689239263535
            ],
            "translation" : [
                0.0006666536210104823,
                0.000170217826962471,
                -0.029358653351664543
            ]
        },
        {
            "mesh" : 2,
            "name" : "\u5e73\u9762.006",
            "rotation" : [
                0.499038964509964,
                -0.5009592175483704,
                -0.5009592175483704,
                0.499038964509964
            ],
            "scale" : [
                0.038199689239263535,
                0.038199689239263535,
                0.038199689239263535
            ],
            "translation" : [
                0.05151212960481644,
                -2.5061890482902527e-05,
                -0.029358651489019394
            ]
        },
        {
            "mesh" : 3,
            "name" : "\u5e73\u9762.007",
            "rotation" : [
                0.4990389943122864,
                -0.5009592175483704,
                -0.5009592175483704,
                0.499038964509964
            ],
            "scale" : [
                0.09229235351085663,
                0.12406548112630844,
                0.12406548112630844
            ],
            "translation" : [
                -0.0009741095127537847,
                0.00017651915550231934,
                -0.029358653351664543
            ]
        },
        {
            "mesh" : 4,
            "name" : "b",
            "rotation" : [
                0.499038964509964,
                -0.5009592175483704,
                -0.5009592175483704,
                0.4990389347076416
            ],
            "scale" : [
                0.09125691652297974,
                0.05647612363100052,
                0.12256442755460739
            ],
            "translation" : [
                -0.0009741132380440831,
                0.00017651915550231934,
                0.028295328840613365
            ]
        },
        {
            "mesh" : 5,
            "name" : "c",
            "rotation" : [
                0.499038964509964,
                -0.5009592175483704,
                -0.5009592175483704,
                0.4990389347076416
            ],
            "scale" : [
                0.09125691652297974,
                0.05647612363100052,
                0.12256442755460739
            ],
            "translation" : [
                -0.0009741132380440831,
                0.00017651915550231934,
                0.028295328840613365
            ]
        },
        {
            "mesh" : 6,
            "name" : "a",
            "rotation" : [
                0.499038964509964,
                -0.5009592175483704,
                -0.5009592175483704,
                0.4990389347076416
            ],
            "scale" : [
                0.09125691652297974,
                0.05647612363100052,
                0.12256442755460739
            ],
            "translation" : [
                -0.0009741132380440831,
                0.00017651915550231934,
                0.028295328840613365
            ]
        },
        {
            "mesh" : 7,
            "name" : "d",
            "rotation" : [
                0.499038964509964,
                -0.5009592175483704,
                -0.5009592175483704,
                0.4990389347076416
            ],
            "scale" : [
                0.09125691652297974,
                0.05647612363100052,
                0.12256442755460739
            ],
            "translation" : [
                -0.0009741132380440831,
                0.00017651915550231934,
                0.028295328840613365
            ]
        }
    ],
    "materials" : [
        {
            "doubleSided" : true,
            "name" : "1.003",
            "pbrMetallicRoughness" : {
                "baseColorFactor" : [
                    0.40723904967308044,
                    0.9559726119041443,
                    1,
                    1
                ],
                "metallicFactor" : 0,
                "roughnessFactor" : 0.4000000059604645
            }
        },
        {
            "doubleSided" : true,
            "name" : "\u6750\u8d28.010",
            "pbrMetallicRoughness" : {
                "baseColorFactor" : [
                    0.005604605656117201,
                    0.5332760810852051,
                    0.590618908405304,
                    1
                ],
                "metallicFactor" : 0,
                "roughnessFactor" : 0.5
            }
        },
        {
            "doubleSided" : true,
            "name" : "\u6750\u8d28.011",
            "pbrMetallicRoughness" : {
                "baseColorFactor" : [
                    0,
                    0.09158424288034439,
                    0.09290634095668793,
                    1
                ],
                "metallicFactor" : 0,
                "roughnessFactor" : 0.5
            }
        },
        {
            "doubleSided" : true,
            "name" : "\u6750\u8d28.012",
            "pbrMetallicRoughness" : {
                "baseColorFactor" : [
                    0.40723904967308044,
                    0.9559726119041443,
                    1,
                    1
                ],
                "metallicFactor" : 0,
                "roughnessFactor" : 0.5
            }
        }
    ],
    "meshes" : [
        {
            "name" : "\u5e73\u9762.012",
            "primitives" : [
                {
                    "attributes" : {
                        "POSITION" : 0,
                        "NORMAL" : 1,
                        "TEXCOORD_0" : 2
                    },
                    "indices" : 3,
                    "material" : 0
                }
            ]
        },
        {
            "name" : "\u5e73\u9762.013",
            "primitives" : [
                {
                    "attributes" : {
                        "POSITION" : 4,
                        "NORMAL" : 5,
                        "TEXCOORD_0" : 6
                    },
                    "indices" : 3,
                    "material" : 1
                }
            ]
        },
        {
            "name" : "\u5e73\u9762.014",
            "primitives" : [
                {
                    "attributes" : {
                        "POSITION" : 7,
                        "NORMAL" : 8,
                        "TEXCOORD_0" : 9
                    },
                    "indices" : 3,
                    "material" : 2
                }
            ]
        },
        {
            "name" : "\u5e73\u9762.015",
            "primitives" : [
                {
                    "attributes" : {
                        "POSITION" : 10,
                        "NORMAL" : 11,
                        "TEXCOORD_0" : 12
                    },
                    "indices" : 13,
                    "material" : 3
                }
            ]
        },
        {
            "name" : "\u7acb\u65b9\u4f53.005",
            "primitives" : [
                {
                    "attributes" : {
                        "POSITION" : 14,
                        "NORMAL" : 15,
                        "TEXCOORD_0" : 16
                    },
                    "indices" : 17
                }
            ]
        },
        {
            "name" : "\u7acb\u65b9\u4f53.006",
            "primitives" : [
                {
                    "attributes" : {
                        "POSITION" : 18,
                        "NORMAL" : 19,
                        "TEXCOORD_0" : 20
                    },
                    "indices" : 17
                }
            ]
        },
        {
            "name" : "\u7acb\u65b9\u4f53.007",
            "primitives" : [
                {
                    "attributes" : {
                        "POSITION" : 21,
                        "NORMAL" : 22,
                        "TEXCOORD_0" : 23
                    },
                    "indices" : 24
                }
            ]
        },
        {
            "name" : "\u7acb\u65b9\u4f53.008",
            "primitives" : [
                {
                    "attributes" : {
                        "POSITION" : 25,
                        "NORMAL" : 26,
                        "TEXCOORD_0" : 27
                    },
                    "indices" : 24
                }
            ]
        }
    ],
    "accessors" : [
        {
            "bufferView" : 0,
            "componentType" : 5126,
            "count" : 6,
            "max" : [
                1,
                0,
                0.8943824172019958
            ],
            "min" : [
                -1,
                0,
                -0.8715648651123047
            ],
            "type" : "VEC3"
        },
        {
            "bufferView" : 1,
            "componentType" : 5126,
            "count" : 6,
            "type" : "VEC3"
        },
        {
            "bufferView" : 2,
            "componentType" : 5126,
            "count" : 6,
            "type" : "VEC2"
        },
        {
            "bufferView" : 3,
            "componentType" : 5123,
            "count" : 12,
            "type" : "SCALAR"
        },
        {
            "bufferView" : 4,
            "componentType" : 5126,
            "count" : 6,
            "max" : [
                1,
                0,
                0.8943824172019958
            ],
            "min" : [
                -1,
                0,
                -0.8715648651123047
            ],
            "type" : "VEC3"
        },
        {
            "bufferView" : 5,
            "componentType" : 5126,
            "count" : 6,
            "type" : "VEC3"
        },
        {
            "bufferView" : 6,
            "componentType" : 5126,
            "count" : 6,
            "type" : "VEC2"
        },
        {
            "bufferView" : 7,
            "componentType" : 5126,
            "count" : 6,
            "max" : [
                1,
                0,
                0.8943824172019958
            ],
            "min" : [
                -1,
                0,
                -0.8715648651123047
            ],
            "type" : "VEC3"
        },
        {
            "bufferView" : 8,
            "componentType" : 5126,
            "count" : 6,
            "type" : "VEC3"
        },
        {
            "bufferView" : 9,
            "componentType" : 5126,
            "count" : 6,
            "type" : "VEC2"
        },
        {
            "bufferView" : 10,
            "componentType" : 5126,
            "count" : 254,
            "max" : [
                1,
                0,
                1
            ],
            "min" : [
                -1,
                0,
                -1
            ],
            "type" : "VEC3"
        },
        {
            "bufferView" : 11,
            "componentType" : 5126,
            "count" : 254,
            "type" : "VEC3"
        },
        {
            "bufferView" : 12,
            "componentType" : 5126,
            "count" : 254,
            "type" : "VEC2"
        },
        {
            "bufferView" : 13,
            "componentType" : 5123,
            "count" : 534,
            "type" : "SCALAR"
        },
        {
            "bufferView" : 14,
            "componentType" : 5126,
            "count" : 4,
            "max" : [
                1,
                1,
                1
            ],
            "min" : [
                1,
                -1,
                -1
            ],
            "type" : "VEC3"
        },
        {
            "bufferView" : 15,
            "componentType" : 5126,
            "count" : 4,
            "type" : "VEC3"
        },
        {
            "bufferView" : 16,
            "componentType" : 5126,
            "count" : 4,
            "type" : "VEC2"
        },
        {
            "bufferView" : 17,
            "componentType" : 5123,
            "count" : 6,
            "type" : "SCALAR"
        },
        {
            "bufferView" : 18,
            "componentType" : 5126,
            "count" : 4,
            "max" : [
                1,
                1,
                1
            ],
            "min" : [
                -1,
                -1,
                1
            ],
            "type" : "VEC3"
        },
        {
            "bufferView" : 19,
            "componentType" : 5126,
            "count" : 4,
            "type" : "VEC3"
        },
        {
            "bufferView" : 20,
            "componentType" : 5126,
            "count" : 4,
            "type" : "VEC2"
        },
        {
            "bufferView" : 21,
            "componentType" : 5126,
            "count" : 4,
            "max" : [
                1,
                1,
                -1
            ],
            "min" : [
                -1,
                -1,
                -1
            ],
            "type" : "VEC3"
        },
        {
            "bufferView" : 22,
            "componentType" : 5126,
            "count" : 4,
            "type" : "VEC3"
        },
        {
            "bufferView" : 23,
            "componentType" : 5126,
            "count" : 4,
            "type" : "VEC2"
        },
        {
            "bufferView" : 24,
            "componentType" : 5123,
            "count" : 6,
            "type" : "SCALAR"
        },
        {
            "bufferView" : 25,
            "componentType" : 5126,
            "count" : 4,
            "max" : [
                -1,
                1,
                1
            ],
            "min" : [
                -1,
                -1,
                -1
            ],
            "type" : "VEC3"
        },
        {
            "bufferView" : 26,
            "componentType" : 5126,
            "count" : 4,
            "type" : "VEC3"
        },
        {
            "bufferView" : 27,
            "componentType" : 5126,
            "count" : 4,
            "type" : "VEC2"
        }
    ],
    "bufferViews" : [
        {
            "buffer" : 0,
            "byteLength" : 72,
            "byteOffset" : 0
        },
        {
            "buffer" : 0,
            "byteLength" : 72,
            "byteOffset" : 72
        },
        {
            "buffer" : 0,
            "byteLength" : 48,
            "byteOffset" : 144
        },
        {
            "buffer" : 0,
            "byteLength" : 24,
            "byteOffset" : 192
        },
        {
            "buffer" : 0,
            "byteLength" : 72,
            "byteOffset" : 216
        },
        {
            "buffer" : 0,
            "byteLength" : 72,
            "byteOffset" : 288
        },
        {
            "buffer" : 0,
            "byteLength" : 48,
            "byteOffset" : 360
        },
        {
            "buffer" : 0,
            "byteLength" : 72,
            "byteOffset" : 408
        },
        {
            "buffer" : 0,
            "byteLength" : 72,
            "byteOffset" : 480
        },
        {
            "buffer" : 0,
            "byteLength" : 48,
            "byteOffset" : 552
        },
        {
            "buffer" : 0,
            "byteLength" : 3048,
            "byteOffset" : 600
        },
        {
            "buffer" : 0,
            "byteLength" : 3048,
            "byteOffset" : 3648
        },
        {
            "buffer" : 0,
            "byteLength" : 2032,
            "byteOffset" : 6696
        },
        {
            "buffer" : 0,
            "byteLength" : 1068,
            "byteOffset" : 8728
        },
        {
            "buffer" : 0,
            "byteLength" : 48,
            "byteOffset" : 9796
        },
        {
            "buffer" : 0,
            "byteLength" : 48,
            "byteOffset" : 9844
        },
        {
            "buffer" : 0,
            "byteLength" : 32,
            "byteOffset" : 9892
        },
        {
            "buffer" : 0,
            "byteLength" : 12,
            "byteOffset" : 9924
        },
        {
            "buffer" : 0,
            "byteLength" : 48,
            "byteOffset" : 9936
        },
        {
            "buffer" : 0,
            "byteLength" : 48,
            "byteOffset" : 9984
        },
        {
            "buffer" : 0,
            "byteLength" : 32,
            "byteOffset" : 10032
        },
        {
            "buffer" : 0,
            "byteLength" : 48,
            "byteOffset" : 10064
        },
        {
            "buffer" : 0,
            "byteLength" : 48,
            "byteOffset" : 10112
        },
        {
            "buffer" : 0,
            "byteLength" : 32,
            "byteOffset" : 10160
        },
        {
            "buffer" : 0,
            "byteLength" : 12,
            "byteOffset" : 10192
        },
        {
            "buffer" : 0,
            "byteLength" : 48,
            "byteOffset" : 10204
        },
        {
            "buffer" : 0,
            "byteLength" : 48,
            "byteOffset" : 10252
        },
        {
            "buffer" : 0,
            "byteLength" : 32,
            "byteOffset" : 10300
        }
    ],
    "buffers" : [
        {
            "byteLength" : 10332,
            "uri" : "data:application/octet-stream;base64,"
        }
    ]
}
