{
  "asset": {
    "generator": "Khronos glTF Blender I/O v3.2.43",
    "version": "2.0"
  },
  "scene": 0,
  "scenes": [
    {
      "name": "Scene",
      "nodes": [0, 1, 2, 3, 4, 5, 6]
    }
  ],
  "nodes": [
    {
      "mesh": 0,
      "name": "\u5c0f\u5df4\u6a21\u578b-\u4e2d",
      "scale": [0.6499999761581421, 0.6499999761581421, 0.6499999761581421],
      "translation": [0, 0, 0.9934242963790894]
    },
    {
      "mesh": 1,
      "name": "\u5239\u8f66\u706f",
      "scale": [0.6499999761581421, 0.6499999761581421, 0.6499999761581421],
      "translation": [0, 0, 0.9934242963790894]
    },
    {
      "mesh": 2,
      "name": "\u5de6\u8f6c\u5411\u706f",
      "scale": [0.6499999761581421, 0.6499999761581421, 0.6499999761581421],
      "translation": [0, 0, 0.9934242963790894]
    },
    {
      "mesh": 3,
      "name": "\u53f3\u8f6c\u5411\u706f",
      "scale": [0.6499999761581421, 0.6499999761581421, 0.6499999761581421],
      "translation": [0, 0, 0.9934242963790894]
    },
    {
      "mesh": 4,
      "name": "\u5c0f\u5df4\u8f66\u95e8_\u4e58\u5ba2\u95e81",
      "scale": [0.6499999761581421, 0.6499999761581421, 0.6499999761581421],
      "translation": [0, 0, 0.9934242963790894]
    },
    {
      "mesh": 5,
      "name": "\u5c0f\u5df4\u8f66\u95e8_\u4e58\u5ba2\u95e82",
      "scale": [0.6499999761581421, 0.6499999761581421, 0.6499999761581421],
      "translation": [0, 0, 0.9934242963790894]
    },
    {
      "mesh": 6,
      "name": "\u5c0f\u5df4\u8f66\u95e8_\u53f8\u673a\u95e8",
      "scale": [0.6499999761581421, 0.6499999761581421, 0.6499999761581421],
      "translation": [0, 0, 0.9934242963790894]
    }
  ],
  "animations": [
    {
      "channels": [
        {
          "sampler": 0,
          "target": {
            "node": 4,
            "path": "translation"
          }
        }
      ],
      "name": "leftLeft",
      "samplers": [
        {
          "input": 28,
          "interpolation": "LINEAR",
          "output": 29
        }
      ]
    },
    {
      "channels": [
        {
          "sampler": 0,
          "target": {
            "node": 5,
            "path": "translation"
          }
        }
      ],
      "name": "leftRight",
      "samplers": [
        {
          "input": 28,
          "interpolation": "LINEAR",
          "output": 30
        }
      ]
    },
    {
      "channels": [
        {
          "sampler": 0,
          "target": {
            "node": 6,
            "path": "translation"
          }
        }
      ],
      "name": "leftFront",
      "samplers": [
        {
          "input": 28,
          "interpolation": "LINEAR",
          "output": 31
        }
      ]
    }
  ],
  "materials": [
    {
      "doubleSided": true,
      "name": "\u6750\u8d28.002",
      "pbrMetallicRoughness": {
        "baseColorFactor": [
          0.6549019813537598, 0.6549019813537598, 0.6549019813537598, 1
        ],
        "metallicFactor": 0,
        "roughnessFactor": 0.5
      }
    },
    {
      "doubleSided": true,
      "emissiveFactor": [1, 0, 0.004476156085729599],
      "name": "\u5c3e\u706f\u7ea2\u8272",
      "pbrMetallicRoughness": {
        "baseColorFactor": [
          0.6549019813537598, 0.6549019813537598, 0.6549019813537598, 1
        ],
        "metallicFactor": 0,
        "roughnessFactor": 0.5
      }
    },
    {
      "doubleSided": true,
      "emissiveFactor": [1, 0.616758406162262, 0.010861325077712536],
      "name": "\u5c3e\u706f\u9ec4\u8272",
      "pbrMetallicRoughness": {
        "baseColorFactor": [
          0.6549019813537598, 0.6549019813537598, 0.6549019813537598, 1
        ],
        "metallicFactor": 0,
        "roughnessFactor": 0.5
      }
    }
  ],
  "meshes": [
    {
      "name": "\u67f1\u4f53.001",
      "primitives": [
        {
          "attributes": {
            "POSITION": 0,
            "NORMAL": 1,
            "TEXCOORD_0": 2
          },
          "indices": 3,
          "material": 0
        }
      ]
    },
    {
      "name": "\u67f1\u4f53.003",
      "primitives": [
        {
          "attributes": {
            "POSITION": 4,
            "NORMAL": 5,
            "TEXCOORD_0": 6
          },
          "indices": 7,
          "material": 1
        }
      ]
    },
    {
      "name": "\u67f1\u4f53.004",
      "primitives": [
        {
          "attributes": {
            "POSITION": 8,
            "NORMAL": 9,
            "TEXCOORD_0": 10
          },
          "indices": 11,
          "material": 2
        }
      ]
    },
    {
      "name": "\u67f1\u4f53.005",
      "primitives": [
        {
          "attributes": {
            "POSITION": 12,
            "NORMAL": 13,
            "TEXCOORD_0": 14
          },
          "indices": 15,
          "material": 2
        }
      ]
    },
    {
      "name": "\u67f1\u4f53.002",
      "primitives": [
        {
          "attributes": {
            "POSITION": 16,
            "NORMAL": 17,
            "TEXCOORD_0": 18
          },
          "indices": 19,
          "material": 0
        }
      ]
    },
    {
      "name": "\u67f1\u4f53.006",
      "primitives": [
        {
          "attributes": {
            "POSITION": 20,
            "NORMAL": 21,
            "TEXCOORD_0": 22
          },
          "indices": 23,
          "material": 0
        }
      ]
    },
    {
      "name": "\u67f1\u4f53.007",
      "primitives": [
        {
          "attributes": {
            "POSITION": 24,
            "NORMAL": 25,
            "TEXCOORD_0": 26
          },
          "indices": 27,
          "material": 0
        }
      ]
    }
  ],
  "accessors": [
    {
      "bufferView": 0,
      "componentType": 5126,
      "count": 13753,
      "max": [6.078642845153809, 2.8705332279205322, 4.033936977386475],
      "min": [-8.844408988952637, -2.903259754180908, -1.511074423789978],
      "type": "VEC3"
    },
    {
      "bufferView": 1,
      "componentType": 5126,
      "count": 13753,
      "type": "VEC3"
    },
    {
      "bufferView": 2,
      "componentType": 5126,
      "count": 13753,
      "type": "VEC2"
    },
    {
      "bufferView": 3,
      "componentType": 5123,
      "count": 15075,
      "type": "SCALAR"
    },
    {
      "bufferView": 4,
      "componentType": 5126,
      "count": 142,
      "max": [-8.791654586791992, 2.369800567626953, 0.5966833829879761],
      "min": [-8.80994987487793, -2.4796175956726074, -0.026016831398010254],
      "type": "VEC3"
    },
    {
      "bufferView": 5,
      "componentType": 5126,
      "count": 142,
      "type": "VEC3"
    },
    {
      "bufferView": 6,
      "componentType": 5126,
      "count": 142,
      "type": "VEC2"
    },
    {
      "bufferView": 7,
      "componentType": 5123,
      "count": 144,
      "type": "SCALAR"
    },
    {
      "bufferView": 8,
      "componentType": 5126,
      "count": 42,
      "max": [-8.792085647583008, 2.366640567779541, -0.022966712713241577],
      "min": [-8.810134887695312, 2.0986671447753906, -0.33736684918403625],
      "type": "VEC3"
    },
    {
      "bufferView": 9,
      "componentType": 5126,
      "count": 42,
      "type": "VEC3"
    },
    {
      "bufferView": 10,
      "componentType": 5126,
      "count": 42,
      "type": "VEC2"
    },
    {
      "bufferView": 11,
      "componentType": 5123,
      "count": 42,
      "type": "SCALAR"
    },
    {
      "bufferView": 12,
      "componentType": 5126,
      "count": 42,
      "max": [-8.792110443115234, -2.2038607597351074, -0.02103617787361145],
      "min": [-8.810134887695312, -2.476558208465576, -0.33448702096939087],
      "type": "VEC3"
    },
    {
      "bufferView": 13,
      "componentType": 5126,
      "count": 42,
      "type": "VEC3"
    },
    {
      "bufferView": 14,
      "componentType": 5126,
      "count": 42,
      "type": "VEC2"
    },
    {
      "bufferView": 15,
      "componentType": 5123,
      "count": 42,
      "type": "SCALAR"
    },
    {
      "bufferView": 16,
      "componentType": 5126,
      "count": 34,
      "max": [0.22723841667175293, 2.7581846714019775, 3.079961061477661],
      "min": [-0.8838592171669006, 2.697988510131836, -0.7816537022590637],
      "type": "VEC3"
    },
    {
      "bufferView": 17,
      "componentType": 5126,
      "count": 34,
      "type": "VEC3"
    },
    {
      "bufferView": 18,
      "componentType": 5126,
      "count": 34,
      "type": "VEC2"
    },
    {
      "bufferView": 19,
      "componentType": 5123,
      "count": 81,
      "type": "SCALAR"
    },
    {
      "bufferView": 20,
      "componentType": 5126,
      "count": 33,
      "max": [-0.8838586807250977, 2.758063793182373, 3.08121395111084],
      "min": [-1.99299156665802, 2.6979918479919434, -0.7811010479927063],
      "type": "VEC3"
    },
    {
      "bufferView": 21,
      "componentType": 5126,
      "count": 33,
      "type": "VEC3"
    },
    {
      "bufferView": 22,
      "componentType": 5126,
      "count": 33,
      "type": "VEC2"
    },
    {
      "bufferView": 23,
      "componentType": 5123,
      "count": 63,
      "type": "SCALAR"
    },
    {
      "bufferView": 24,
      "componentType": 5126,
      "count": 39,
      "max": [5.351881504058838, 2.751711845397949, 3.046929359436035],
      "min": [3.866412401199341, 2.6977648735046387, -0.7528821229934692],
      "type": "VEC3"
    },
    {
      "bufferView": 25,
      "componentType": 5126,
      "count": 39,
      "type": "VEC3"
    },
    {
      "bufferView": 26,
      "componentType": 5126,
      "count": 39,
      "type": "VEC2"
    },
    {
      "bufferView": 27,
      "componentType": 5123,
      "count": 57,
      "type": "SCALAR"
    },
    {
      "bufferView": 28,
      "componentType": 5126,
      "count": 41,
      "max": [1.6666666666666667],
      "min": [0],
      "type": "SCALAR"
    },
    {
      "bufferView": 29,
      "componentType": 5126,
      "count": 41,
      "type": "VEC3"
    },
    {
      "bufferView": 30,
      "componentType": 5126,
      "count": 41,
      "type": "VEC3"
    },
    {
      "bufferView": 31,
      "componentType": 5126,
      "count": 41,
      "type": "VEC3"
    }
  ],
  "bufferViews": [
    {
      "buffer": 0,
      "byteLength": 165036,
      "byteOffset": 0
    },
    {
      "buffer": 0,
      "byteLength": 165036,
      "byteOffset": 165036
    },
    {
      "buffer": 0,
      "byteLength": 110024,
      "byteOffset": 330072
    },
    {
      "buffer": 0,
      "byteLength": 30150,
      "byteOffset": 440096
    },
    {
      "buffer": 0,
      "byteLength": 1704,
      "byteOffset": 470248
    },
    {
      "buffer": 0,
      "byteLength": 1704,
      "byteOffset": 471952
    },
    {
      "buffer": 0,
      "byteLength": 1136,
      "byteOffset": 473656
    },
    {
      "buffer": 0,
      "byteLength": 288,
      "byteOffset": 474792
    },
    {
      "buffer": 0,
      "byteLength": 504,
      "byteOffset": 475080
    },
    {
      "buffer": 0,
      "byteLength": 504,
      "byteOffset": 475584
    },
    {
      "buffer": 0,
      "byteLength": 336,
      "byteOffset": 476088
    },
    {
      "buffer": 0,
      "byteLength": 84,
      "byteOffset": 476424
    },
    {
      "buffer": 0,
      "byteLength": 504,
      "byteOffset": 476508
    },
    {
      "buffer": 0,
      "byteLength": 504,
      "byteOffset": 477012
    },
    {
      "buffer": 0,
      "byteLength": 336,
      "byteOffset": 477516
    },
    {
      "buffer": 0,
      "byteLength": 84,
      "byteOffset": 477852
    },
    {
      "buffer": 0,
      "byteLength": 408,
      "byteOffset": 477936
    },
    {
      "buffer": 0,
      "byteLength": 408,
      "byteOffset": 478344
    },
    {
      "buffer": 0,
      "byteLength": 272,
      "byteOffset": 478752
    },
    {
      "buffer": 0,
      "byteLength": 162,
      "byteOffset": 479024
    },
    {
      "buffer": 0,
      "byteLength": 396,
      "byteOffset": 479188
    },
    {
      "buffer": 0,
      "byteLength": 396,
      "byteOffset": 479584
    },
    {
      "buffer": 0,
      "byteLength": 264,
      "byteOffset": 479980
    },
    {
      "buffer": 0,
      "byteLength": 126,
      "byteOffset": 480244
    },
    {
      "buffer": 0,
      "byteLength": 468,
      "byteOffset": 480372
    },
    {
      "buffer": 0,
      "byteLength": 468,
      "byteOffset": 480840
    },
    {
      "buffer": 0,
      "byteLength": 312,
      "byteOffset": 481308
    },
    {
      "buffer": 0,
      "byteLength": 114,
      "byteOffset": 481620
    },
    {
      "buffer": 0,
      "byteLength": 164,
      "byteOffset": 481736
    },
    {
      "buffer": 0,
      "byteLength": 492,
      "byteOffset": 481900
    },
    {
      "buffer": 0,
      "byteLength": 492,
      "byteOffset": 482392
    },
    {
      "buffer": 0,
      "byteLength": 492,
      "byteOffset": 482884
    }
  ],
  "buffers": [
    {
      "byteLength": 483376,
      "uri": "data:application/octet-stream;base64,"
    }
  ]
}
