{
  "asset": {
    "generator": "Khronos glTF Blender I/O v3.2.43",
    "version": "2.0"
  },
  "scene": 0,
  "scenes": [
    {
      "name": "Scene",
      "nodes": [0, 1, 2, 3, 4, 5, 8]
    }
  ],
  "nodes": [
    {
      "mesh": 0,
      "name": "\u5239\u8f66\u706f",
      "scale": [0.6499999761581421, 0.6499999761581421, 0.6499999761581421],
      "translation": [0, 0.016896069049835205, 0.0026235580444335938]
    },
    {
      "mesh": 1,
      "name": "\u5de6\u8f6c\u5411\u706f",
      "scale": [0.6499999761581421, 0.6499999761581421, 0.6499999761581421],
      "translation": [0, 0.016896069049835205, 0.0026235580444335938]
    },
    {
      "mesh": 2,
      "name": "\u53f3\u8f6c\u5411\u706f",
      "scale": [0.6499999761581421, 0.6499999761581421, 0.6499999761581421],
      "translation": [0, 0.016896069049835205, 0.0026235580444335938]
    },
    {
      "mesh": 3,
      "name": "\u53f3\u4fa7\u8f66\u95e8",
      "scale": [0.6499999761581421, 0.6499999761581421, 0.6499999761581421],
      "translation": [
        2.4322595596313477, -1.1879888772964478, 0.010782768949866295
      ]
    },
    {
      "mesh": 4,
      "name": "\u5de6\u4fa7\u8f66\u95e8",
      "scale": [0.6499999761581421, 0.6499999761581421, 0.6499999761581421],
      "translation": [
        2.4322597980499268, 1.1879888772964478, 0.010782768949866295
      ]
    },
    {
      "mesh": 5,
      "name": "\u7bb1\u8d27\u8f66",
      "scale": [0.6499999761581421, 0.6499999761581421, 0.6499999761581421],
      "translation": [-0.008282780647277832, 0, 0.010782768949866295]
    },
    {
      "mesh": 6,
      "name": "\u5c3e\u95e8\u53f3",
      "rotation": [0.7071068286895752, 0, 0, 0.7071068286895752],
      "translation": [
        -0.07112503051757812, -1.119508147239685, -1.0811965465545654
      ]
    },
    {
      "mesh": 7,
      "name": "\u5c3e\u95e8\u5de6",
      "rotation": [0, 0.0025743041187524796, 0, 0.9999967217445374],
      "scale": [0.6500000357627869, 0.6499999761581421, 0.6500000357627869],
      "translation": [
        -0.07808589935302734, 1.1151729822158813, -1.0788142681121826
      ]
    },
    {
      "children": [6, 7],
      "name": "\u5411\u4e0a\u5f00",
      "translation": [
        -4.129489421844482, 0.02042086236178875, 3.1671416759490967
      ]
    }
  ],
  "animations": [
    {
      "channels": [
        {
          "sampler": 0,
          "target": {
            "node": 3,
            "path": "rotation"
          }
        }
      ],
      "name": "rightFront",
      "samplers": [
        {
          "input": 33,
          "interpolation": "LINEAR",
          "output": 34
        }
      ]
    },
    {
      "channels": [
        {
          "sampler": 0,
          "target": {
            "node": 4,
            "path": "rotation"
          }
        }
      ],
      "name": "leftFront",
      "samplers": [
        {
          "input": 33,
          "interpolation": "LINEAR",
          "output": 35
        }
      ]
    },
    {
      "channels": [
        {
          "sampler": 0,
          "target": {
            "node": 8,
            "path": "rotation"
          }
        }
      ],
      "name": "trunkUp",
      "samplers": [
        {
          "input": 33,
          "interpolation": "LINEAR",
          "output": 36
        }
      ]
    },
    {
      "channels": [
        {
          "sampler": 0,
          "target": {
            "node": 6,
            "path": "rotation"
          }
        }
      ],
      "name": "trunkRight",
      "samplers": [
        {
          "input": 33,
          "interpolation": "LINEAR",
          "output": 37
        }
      ]
    },
    {
      "channels": [
        {
          "sampler": 0,
          "target": {
            "node": 7,
            "path": "rotation"
          }
        }
      ],
      "name": "trunkLeft",
      "samplers": [
        {
          "input": 33,
          "interpolation": "LINEAR",
          "output": 38
        }
      ]
    }
  ],
  "materials": [
    {
      "doubleSided": true,
      "emissiveFactor": [1, 0, 0.004476156085729599],
      "name": "\u5c3e\u706f\u7ea2\u8272",
      "pbrMetallicRoughness": {
        "baseColorFactor": [
          0.6549019813537598, 0.6549019813537598, 0.6549019813537598, 1
        ],
        "metallicFactor": 0,
        "roughnessFactor": 0.5
      }
    },
    {
      "doubleSided": true,
      "emissiveFactor": [1, 0.616758406162262, 0.010861325077712536],
      "name": "\u5c3e\u706f\u9ec4\u8272",
      "pbrMetallicRoughness": {
        "baseColorFactor": [
          0.6549019813537598, 0.6549019813537598, 0.6549019813537598, 1
        ],
        "metallicFactor": 0,
        "roughnessFactor": 0.5
      }
    },
    {
      "doubleSided": true,
      "name": "\u6750\u8d28.002",
      "pbrMetallicRoughness": {
        "baseColorFactor": [
          0.6549019813537598, 0.6549019813537598, 0.6549019813537598, 1
        ],
        "metallicFactor": 0,
        "roughnessFactor": 0.5
      }
    }
  ],
  "meshes": [
    {
      "name": "\u7acb\u65b9\u4f53.002",
      "primitives": [
        {
          "attributes": {
            "POSITION": 0,
            "NORMAL": 1,
            "TEXCOORD_0": 2
          },
          "indices": 3,
          "material": 0
        }
      ]
    },
    {
      "name": "\u7acb\u65b9\u4f53.003",
      "primitives": [
        {
          "attributes": {
            "POSITION": 4,
            "NORMAL": 5,
            "TEXCOORD_0": 6
          },
          "indices": 7,
          "material": 1
        }
      ]
    },
    {
      "name": "\u7acb\u65b9\u4f53.004",
      "primitives": [
        {
          "attributes": {
            "POSITION": 8,
            "NORMAL": 9,
            "TEXCOORD_0": 10
          },
          "indices": 11,
          "material": 1
        }
      ]
    },
    {
      "name": "\u7acb\u65b9\u4f53.009",
      "primitives": [
        {
          "attributes": {
            "POSITION": 12,
            "NORMAL": 13,
            "TEXCOORD_0": 14
          },
          "indices": 15,
          "material": 2
        }
      ]
    },
    {
      "name": "\u7acb\u65b9\u4f53.010",
      "primitives": [
        {
          "attributes": {
            "POSITION": 16,
            "NORMAL": 17,
            "TEXCOORD_0": 18
          },
          "indices": 19,
          "material": 2
        }
      ]
    },
    {
      "name": "\u7acb\u65b9\u4f53.011",
      "primitives": [
        {
          "attributes": {
            "POSITION": 20,
            "NORMAL": 21,
            "TEXCOORD_0": 22,
            "TEXCOORD_1": 23
          },
          "indices": 24,
          "material": 2
        }
      ]
    },
    {
      "name": "\u7acb\u65b9\u4f53.006",
      "primitives": [
        {
          "attributes": {
            "POSITION": 25,
            "NORMAL": 26,
            "TEXCOORD_0": 27
          },
          "indices": 28,
          "material": 2
        }
      ]
    },
    {
      "name": "\u7acb\u65b9\u4f53.005",
      "primitives": [
        {
          "attributes": {
            "POSITION": 29,
            "NORMAL": 30,
            "TEXCOORD_0": 31
          },
          "indices": 32,
          "material": 2
        }
      ]
    }
  ],
  "accessors": [
    {
      "bufferView": 0,
      "componentType": 5126,
      "count": 254,
      "max": [-6.4650654792785645, 1.6355959177017212, 1.4293372631072998],
      "min": [-6.504894733428955, -1.6012815237045288, 1.2347469329833984],
      "type": "VEC3"
    },
    {
      "bufferView": 1,
      "componentType": 5126,
      "count": 254,
      "type": "VEC3"
    },
    {
      "bufferView": 2,
      "componentType": 5126,
      "count": 254,
      "type": "VEC2"
    },
    {
      "bufferView": 3,
      "componentType": 5123,
      "count": 264,
      "type": "SCALAR"
    },
    {
      "bufferView": 4,
      "componentType": 5126,
      "count": 68,
      "max": [-6.4650654792785645, 1.8552093505859375, 1.4293372631072998],
      "min": [-6.504893779754639, 1.6329091787338257, 1.234747052192688],
      "type": "VEC3"
    },
    {
      "bufferView": 5,
      "componentType": 5126,
      "count": 68,
      "type": "VEC3"
    },
    {
      "bufferView": 6,
      "componentType": 5126,
      "count": 68,
      "type": "VEC2"
    },
    {
      "bufferView": 7,
      "componentType": 5123,
      "count": 78,
      "type": "SCALAR"
    },
    {
      "bufferView": 8,
      "componentType": 5126,
      "count": 70,
      "max": [-6.465066432952881, -1.5985902547836304, 1.4293370246887207],
      "min": [-6.504894733428955, -1.8354835510253906, 1.2347469329833984],
      "type": "VEC3"
    },
    {
      "bufferView": 9,
      "componentType": 5126,
      "count": 70,
      "type": "VEC3"
    },
    {
      "bufferView": 10,
      "componentType": 5126,
      "count": 70,
      "type": "VEC2"
    },
    {
      "bufferView": 11,
      "componentType": 5123,
      "count": 78,
      "type": "SCALAR"
    },
    {
      "bufferView": 12,
      "componentType": 5126,
      "count": 144,
      "max": [0.026514768600463867, 0.3144460916519165, 4.34523344039917],
      "min": [-2.064725875854492, -0.0707322359085083, 1.5315241813659668],
      "type": "VEC3"
    },
    {
      "bufferView": 13,
      "componentType": 5126,
      "count": 144,
      "type": "VEC3"
    },
    {
      "bufferView": 14,
      "componentType": 5126,
      "count": 144,
      "type": "VEC2"
    },
    {
      "bufferView": 15,
      "componentType": 5123,
      "count": 276,
      "type": "SCALAR"
    },
    {
      "bufferView": 16,
      "componentType": 5126,
      "count": 144,
      "max": [0.02142620086669922, 0.06552648544311523, 4.335840225219727],
      "min": [-2.054673910140991, -0.33287513256073, 1.5414469242095947],
      "type": "VEC3"
    },
    {
      "bufferView": 17,
      "componentType": 5126,
      "count": 144,
      "type": "VEC3"
    },
    {
      "bufferView": 18,
      "componentType": 5126,
      "count": 144,
      "type": "VEC2"
    },
    {
      "bufferView": 19,
      "componentType": 5123,
      "count": 276,
      "type": "SCALAR"
    },
    {
      "bufferView": 20,
      "componentType": 5126,
      "count": 8039,
      "max": [5.364443778991699, 2.034379243850708, 5.0927934646606445],
      "min": [-6.509423732757568, -2.013958215713501, -0.011823694221675396],
      "type": "VEC3"
    },
    {
      "bufferView": 21,
      "componentType": 5126,
      "count": 8039,
      "type": "VEC3"
    },
    {
      "bufferView": 22,
      "componentType": 5126,
      "count": 8039,
      "type": "VEC2"
    },
    {
      "bufferView": 23,
      "componentType": 5126,
      "count": 8039,
      "type": "VEC2"
    },
    {
      "bufferView": 24,
      "componentType": 5123,
      "count": 8805,
      "type": "SCALAR"
    },
    {
      "bufferView": 25,
      "componentType": 5126,
      "count": 36,
      "max": [0.09140326827764511, 1.082700252532959, 0.015599275007843971],
      "min": [-0.0012969970703125, -1.0828074216842651, -1.12411630153656],
      "type": "VEC3"
    },
    {
      "bufferView": 26,
      "componentType": 5126,
      "count": 36,
      "type": "VEC3"
    },
    {
      "bufferView": 27,
      "componentType": 5126,
      "count": 36,
      "type": "VEC2"
    },
    {
      "bufferView": 28,
      "componentType": 5123,
      "count": 60,
      "type": "SCALAR"
    },
    {
      "bufferView": 29,
      "componentType": 5126,
      "count": 36,
      "max": [0.13232161104679108, 0.04199087619781494, 1.6656930446624756],
      "min": [-0.00215911865234375, -1.7114171981811523, -1.6658601760864258],
      "type": "VEC3"
    },
    {
      "bufferView": 30,
      "componentType": 5126,
      "count": 36,
      "type": "VEC3"
    },
    {
      "bufferView": 31,
      "componentType": 5126,
      "count": 36,
      "type": "VEC2"
    },
    {
      "bufferView": 32,
      "componentType": 5123,
      "count": 60,
      "type": "SCALAR"
    },
    {
      "bufferView": 33,
      "componentType": 5126,
      "count": 41,
      "max": [1.6666666666666667],
      "min": [0],
      "type": "SCALAR"
    },
    {
      "bufferView": 34,
      "componentType": 5126,
      "count": 41,
      "type": "VEC4"
    },
    {
      "bufferView": 35,
      "componentType": 5126,
      "count": 41,
      "type": "VEC4"
    },
    {
      "bufferView": 36,
      "componentType": 5126,
      "count": 41,
      "type": "VEC4"
    },
    {
      "bufferView": 37,
      "componentType": 5126,
      "count": 41,
      "type": "VEC4"
    },
    {
      "bufferView": 38,
      "componentType": 5126,
      "count": 41,
      "type": "VEC4"
    }
  ],
  "bufferViews": [
    {
      "buffer": 0,
      "byteLength": 3048,
      "byteOffset": 0
    },
    {
      "buffer": 0,
      "byteLength": 3048,
      "byteOffset": 3048
    },
    {
      "buffer": 0,
      "byteLength": 2032,
      "byteOffset": 6096
    },
    {
      "buffer": 0,
      "byteLength": 528,
      "byteOffset": 8128
    },
    {
      "buffer": 0,
      "byteLength": 816,
      "byteOffset": 8656
    },
    {
      "buffer": 0,
      "byteLength": 816,
      "byteOffset": 9472
    },
    {
      "buffer": 0,
      "byteLength": 544,
      "byteOffset": 10288
    },
    {
      "buffer": 0,
      "byteLength": 156,
      "byteOffset": 10832
    },
    {
      "buffer": 0,
      "byteLength": 840,
      "byteOffset": 10988
    },
    {
      "buffer": 0,
      "byteLength": 840,
      "byteOffset": 11828
    },
    {
      "buffer": 0,
      "byteLength": 560,
      "byteOffset": 12668
    },
    {
      "buffer": 0,
      "byteLength": 156,
      "byteOffset": 13228
    },
    {
      "buffer": 0,
      "byteLength": 1728,
      "byteOffset": 13384
    },
    {
      "buffer": 0,
      "byteLength": 1728,
      "byteOffset": 15112
    },
    {
      "buffer": 0,
      "byteLength": 1152,
      "byteOffset": 16840
    },
    {
      "buffer": 0,
      "byteLength": 552,
      "byteOffset": 17992
    },
    {
      "buffer": 0,
      "byteLength": 1728,
      "byteOffset": 18544
    },
    {
      "buffer": 0,
      "byteLength": 1728,
      "byteOffset": 20272
    },
    {
      "buffer": 0,
      "byteLength": 1152,
      "byteOffset": 22000
    },
    {
      "buffer": 0,
      "byteLength": 552,
      "byteOffset": 23152
    },
    {
      "buffer": 0,
      "byteLength": 96468,
      "byteOffset": 23704
    },
    {
      "buffer": 0,
      "byteLength": 96468,
      "byteOffset": 120172
    },
    {
      "buffer": 0,
      "byteLength": 64312,
      "byteOffset": 216640
    },
    {
      "buffer": 0,
      "byteLength": 64312,
      "byteOffset": 280952
    },
    {
      "buffer": 0,
      "byteLength": 17610,
      "byteOffset": 345264
    },
    {
      "buffer": 0,
      "byteLength": 432,
      "byteOffset": 362876
    },
    {
      "buffer": 0,
      "byteLength": 432,
      "byteOffset": 363308
    },
    {
      "buffer": 0,
      "byteLength": 288,
      "byteOffset": 363740
    },
    {
      "buffer": 0,
      "byteLength": 120,
      "byteOffset": 364028
    },
    {
      "buffer": 0,
      "byteLength": 432,
      "byteOffset": 364148
    },
    {
      "buffer": 0,
      "byteLength": 432,
      "byteOffset": 364580
    },
    {
      "buffer": 0,
      "byteLength": 288,
      "byteOffset": 365012
    },
    {
      "buffer": 0,
      "byteLength": 120,
      "byteOffset": 365300
    },
    {
      "buffer": 0,
      "byteLength": 164,
      "byteOffset": 365420
    },
    {
      "buffer": 0,
      "byteLength": 656,
      "byteOffset": 365584
    },
    {
      "buffer": 0,
      "byteLength": 656,
      "byteOffset": 366240
    },
    {
      "buffer": 0,
      "byteLength": 656,
      "byteOffset": 366896
    },
    {
      "buffer": 0,
      "byteLength": 656,
      "byteOffset": 367552
    },
    {
      "buffer": 0,
      "byteLength": 656,
      "byteOffset": 368208
    }
  ],
  "buffers": [
    {
      "byteLength": 368864,
      "uri": "data:application/octet-stream;base64,"
    }
  ]
}
