{
    "asset" : {
        "generator" : "Khronos glTF Blender I/O v3.2.43",
        "version" : "2.0"
    },
    "scene" : 0,
    "scenes" : [
        {
            "name" : "Scene",
            "nodes" : [
                5
            ]
        }
    ],
    "nodes" : [
        {
            "name" : "Default Ambient Light",
            "translation" : [
                0,
                1,
                0
            ]
        },
        {
            "mesh" : 0,
            "name" : "Default",
            "translation" : [
                -4.393640041351318,
                0,
                -135.33938598632812
            ]
        },
        {
            "mesh" : 1,
            "name" : "Default_1",
            "translation" : [
                -4.393640041351318,
                0,
                -135.33938598632812
            ]
        },
        {
            "children" : [
                1,
                2
            ],
            "name" : "\u72d7\u72d7",
            "scale" : [
                15.668024063110352,
                15.668024063110352,
                15.668024063110352
            ]
        },
        {
            "children" : [
                0,
                3
            ],
            "name" : "Scene 1"
        },
        {
            "children" : [
                4
            ],
            "name" : "Node_0",
            "scale" : [
                0.009999999776482582,
                0.009999999776482582,
                0.009999999776482582
            ]
        }
    ],
    "materials" : [
        {
            "doubleSided" : true,
            "name" : "\u6750\u8d28.001",
            "pbrMetallicRoughness" : {
                "metallicFactor" : 0,
                "roughnessFactor" : 0.5
            }
        },
        {
            "doubleSided" : true,
            "name" : "\u6750\u8d28",
            "pbrMetallicRoughness" : {
                "metallicFactor" : 0,
                "roughnessFactor" : 0.5
            }
        }
    ],
    "meshes" : [
        {
            "name" : "Mesh_0",
            "primitives" : [
                {
                    "attributes" : {
                        "POSITION" : 0,
                        "NORMAL" : 1,
                        "TEXCOORD_0" : 2
                    },
                    "indices" : 3,
                    "material" : 0
                }
            ]
        },
        {
            "name" : "Mesh_1",
            "primitives" : [
                {
                    "attributes" : {
                        "POSITION" : 4,
                        "NORMAL" : 5,
                        "TEXCOORD_0" : 6
                    },
                    "indices" : 7,
                    "material" : 1
                }
            ]
        }
    ],
    "accessors" : [
        {
            "bufferView" : 0,
            "componentType" : 5126,
            "count" : 16464,
            "max" : [
                7.597586154937744,
                5.265860080718994,
                138.83465576171875
            ],
            "min" : [
                0.9931550025939941,
                0.018804000690579414,
                132.23028564453125
            ],
            "type" : "VEC3"
        },
        {
            "bufferView" : 1,
            "componentType" : 5126,
            "count" : 16464,
            "type" : "VEC3"
        },
        {
            "bufferView" : 2,
            "componentType" : 5126,
            "count" : 16464,
            "type" : "VEC2"
        },
        {
            "bufferView" : 3,
            "componentType" : 5123,
            "count" : 16464,
            "type" : "SCALAR"
        },
        {
            "bufferView" : 4,
            "componentType" : 5126,
            "count" : 7044,
            "max" : [
                8.677992820739746,
                6.4012298583984375,
                136.5602569580078
            ],
            "min" : [
                0.8524199724197388,
                0.17951799929141998,
                134.451904296875
            ],
            "type" : "VEC3"
        },
        {
            "bufferView" : 5,
            "componentType" : 5126,
            "count" : 7044,
            "type" : "VEC3"
        },
        {
            "bufferView" : 6,
            "componentType" : 5126,
            "count" : 7044,
            "type" : "VEC2"
        },
        {
            "bufferView" : 7,
            "componentType" : 5123,
            "count" : 7044,
            "type" : "SCALAR"
        }
    ],
    "bufferViews" : [
        {
            "buffer" : 0,
            "byteLength" : 197568,
            "byteOffset" : 0
        },
        {
            "buffer" : 0,
            "byteLength" : 197568,
            "byteOffset" : 197568
        },
        {
            "buffer" : 0,
            "byteLength" : 131712,
            "byteOffset" : 395136
        },
        {
            "buffer" : 0,
            "byteLength" : 32928,
            "byteOffset" : 526848
        },
        {
            "buffer" : 0,
            "byteLength" : 84528,
            "byteOffset" : 559776
        },
        {
            "buffer" : 0,
            "byteLength" : 84528,
            "byteOffset" : 644304
        },
        {
            "buffer" : 0,
            "byteLength" : 56352,
            "byteOffset" : 728832
        },
        {
            "buffer" : 0,
            "byteLength" : 14088,
            "byteOffset" : 785184
        }
    ],
    "buffers" : [
        {
            "byteLength" : 799272,
            "uri" : "data:application/octet-stream;base64,"
        }
    ]
}
